# xmcd
#
# Track frame offsets:
#	150
#	15665
#	33194
#	45560
#	62463
#	80701
#	92172
#	107757
#	128771
#	147826
#	163220
#	180209
#	197195
#	216768
#	236084
#	248883
#	271382
#	288494
#	309679
#
# Disc length: 4437 seconds
#
# Revision: 0
# Processed by: cddbd v1.5.2PL0 Copyright (c) Steve Scherf et al.
# Submitted via: dBpowerAMP V4.0
#
DISCID=0e115313
DTITLE=Jackson Taylor - Live Locked and Loaded at Longhorns Saloon
DYEAR=2006
DGENRE=Country
TTITLE0=Whiskey and Women
TTITLE1=Goin Down Swingin'
TTITLE2=Mas Mas Tequila
TTITLE3=Tear Me Down
TTITLE4=Old Lone Star
TTITLE5=Hard Timin' Love
TTITLE6=Something More
TTITLE7=Easy Lovin' Stranger
TTITLE8=Blue Agave
TTITLE9=Gypsies and Drifters
TTITLE10=If I Could Have It My Way
TTITLE11=Maria
TTITLE12=Humbolt County Grown
TTITLE13=It's Not Supposed to be That Way
TTITLE14=Wicked, Wicked Me
TTITLE15=Broken
TTITLE16=Barefeet on the Dash
TTITLE17=Whiskey
TTITLE18=Long Legs and Long Necks
EXTD=
EXTT0=
EXTT1=
EXTT2=
EXTT3=
EXTT4=
EXTT5=
EXTT6=
EXTT7=
EXTT8=
EXTT9=
EXTT10=
EXTT11=
EXTT12=
EXTT13=
EXTT14=
EXTT15=
EXTT16=
EXTT17=
EXTT18=
PLAYORDER=
